<svg width="113" height="130" version="1.1" xmlns="http://www.w3.org/2000/svg" desc="Created with imagetracer.js version 1.2.6" ><path fill="rgb(200,242,29)" stroke="rgb(200,242,29)" stroke-width="1" opacity="0.4823529411764706" d="M 42 0 Q 45.8 -0.8 47 2.5 L 44.5 1 L 43 1.5 L 43 30.5 L 43.5 32 L 42.5 31 L 0 30.5 L 15 30 L 15 16 L 0.5 16 L 0.5 15 L 16 15 L 16 30 L 42 30 L 42 0 Z " /><path fill="rgb(200,242,29)" stroke="rgb(200,242,29)" stroke-width="1" opacity="0.4823529411764706" d="M 48.5 3 L 66 15.5 L 63.5 14 L 50.5 6 L 48.5 3 Z " /><path fill="rgb(200,242,29)" stroke="rgb(200,242,29)" stroke-width="1" opacity="0.4823529411764706" d="M 67.5 16 L 82 26.5 L 79.5 25 L 69.5 19 L 67.5 16 Z " /><path fill="rgb(200,242,29)" stroke="rgb(200,242,29)" stroke-width="1" opacity="0.4823529411764706" d="M 83.5 27 L 84.5 29 L 83.5 27 Z " /><path fill="rgb(200,242,29)" stroke="rgb(200,242,29)" stroke-width="1" opacity="0.4823529411764706" d="M 86.5 29 L 102 41.5 L 108 51.5 L 107 51.5 Q 103.8 43.2 97.5 38 L 88.5 32 L 86.5 29 Z " /><path fill="rgb(200,242,29)" stroke="rgb(200,242,29)" stroke-width="1" opacity="0.4823529411764706" d="M 45.5 32 L 46.5 34 L 45.5 32 Z " /><path fill="rgb(200,242,29)" stroke="rgb(200,242,29)" stroke-width="1" opacity="0.4823529411764706" d="M 48.5 34 L 49.5 36 L 48.5 34 Z " /><path fill="rgb(200,242,29)" stroke="rgb(200,242,29)" stroke-width="1" opacity="0.4823529411764706" d="M 51.5 36 L 52.5 38 L 51.5 36 Z " /><path fill="rgb(200,242,29)" stroke="rgb(200,242,29)" stroke-width="1" opacity="0.4823529411764706" d="M 54.5 38 L 55.5 40 L 54.5 38 Z " /><path fill="rgb(200,242,29)" stroke="rgb(200,242,29)" stroke-width="1" opacity="0.4823529411764706" d="M 57.5 40 L 58.5 42 L 57.5 40 Z " /><path fill="rgb(200,242,29)" stroke="rgb(200,242,29)" stroke-width="1" opacity="0.4823529411764706" d="M 60.5 42 L 66 46.5 L 63.5 45 L 60.5 42 Z " /><path fill="rgb(200,242,29)" stroke="rgb(200,242,29)" stroke-width="1" opacity="0.4823529411764706" d="M 67.5 47 L 68.5 49 L 67.5 47 Z " /><path fill="rgb(200,242,29)" stroke="rgb(200,242,29)" stroke-width="1" opacity="0.4823529411764706" d="M 70.5 49 L 71.5 51 L 70.5 49 Z " /><path fill="rgb(200,242,29)" stroke="rgb(200,242,29)" stroke-width="1" opacity="0.4823529411764706" d="M 73.5 51 L 74.5 53 L 73.5 51 Z " /><path fill="rgb(200,242,29)" stroke="rgb(200,242,29)" stroke-width="1" opacity="0.4823529411764706" d="M 76.5 53 L 78.5 56 L 76.5 53 Z " /><path fill="rgb(200,242,29)" stroke="rgb(200,242,29)" stroke-width="1" opacity="0.4823529411764706" d="M 80.5 56 L 81.5 58 L 80.5 56 Z " /><path fill="rgb(200,242,29)" stroke="rgb(200,242,29)" stroke-width="1" opacity="0.4823529411764706" d="M 109.5 56 L 110 58.5 L 109 58.5 L 109.5 56 Z " /><path fill="rgb(200,242,29)" stroke="rgb(200,242,29)" stroke-width="1" opacity="0.4823529411764706" d="M 15.5 58 L 43 58.5 L 15.5 59 L 15.5 58 Z " /><path fill="rgb(200,242,29)" stroke="rgb(200,242,29)" stroke-width="1" opacity="0.4823529411764706" d="M 82.5 59 L 84.5 62 L 82.5 59 Z " /><path fill="rgb(200,242,29)" stroke="rgb(200,242,29)" stroke-width="1" opacity="0.4823529411764706" d="M 110.5 61 L 111 68.5 L 110 68.5 L 110.5 61 Z " /><path fill="rgb(200,242,29)" stroke="rgb(200,242,29)" stroke-width="1" opacity="0.4823529411764706" d="M 85.5 63 L 86.5 65 L 85.5 63 Z " /><path fill="rgb(200,242,29)" stroke="rgb(200,242,29)" stroke-width="1" opacity="0.4823529411764706" d="M 84 66 L 86.5 67 L 88 66.5 L 87.5 68 L 90 69.5 L 92 74.5 L 90 75.5 L 85.5 67 L 84 67.5 L 84 66 Z " /><path fill="rgb(200,242,29)" stroke="rgb(200,242,29)" stroke-width="1" opacity="0.4823529411764706" d="M 83.5 69 L 80.5 73 L 83.5 69 Z " /><path fill="rgb(200,242,29)" stroke="rgb(200,242,29)" stroke-width="1" opacity="0.4823529411764706" d="M 78.5 73 L 77.5 75 L 78.5 73 Z " /><path fill="rgb(200,242,29)" stroke="rgb(200,242,29)" stroke-width="1" opacity="0.4823529411764706" d="M 75.5 75 L 74.5 77 L 75.5 75 Z " /><path fill="rgb(200,242,29)" stroke="rgb(200,242,29)" stroke-width="1" opacity="0.4823529411764706" d="M 92.5 76 L 91.5 78 L 92.5 76 Z " /><path fill="rgb(200,242,29)" stroke="rgb(200,242,29)" stroke-width="1" opacity="0.4823529411764706" d="M 72.5 77 L 71.5 79 L 72.5 77 Z " /><path fill="rgb(200,242,29)" stroke="rgb(200,242,29)" stroke-width="1" opacity="0.4823529411764706" d="M 24.5 78 L 43 78.5 L 24.5 79 L 24.5 78 Z " /><path fill="rgb(200,242,29)" stroke="rgb(200,242,29)" stroke-width="1" opacity="0.4823529411764706" d="M 92 79 L 94 79.5 L 92.5 82 L 92 79 Z " /><path fill="rgb(200,242,29)" stroke="rgb(200,242,29)" stroke-width="1" opacity="0.4823529411764706" d="M 68.5 80 L 67.5 82 L 68.5 80 Z " /><path fill="rgb(200,242,29)" stroke="rgb(200,242,29)" stroke-width="1" opacity="0.4823529411764706" d="M 65.5 82 L 64.5 84 L 65.5 82 Z " /><path fill="rgb(200,242,29)" stroke="rgb(200,242,29)" stroke-width="1" opacity="0.4823529411764706" d="M 94.5 82 L 95 84.5 L 94 89.5 L 95 93.5 L 94 93.5 L 93 83.5 L 94.5 82 Z " /><path fill="rgb(200,242,29)" stroke="rgb(200,242,29)" stroke-width="1" opacity="0.4823529411764706" d="M 62.5 84 L 61.5 86 L 62.5 84 Z " /><path fill="rgb(200,242,29)" stroke="rgb(200,242,29)" stroke-width="1" opacity="0.4823529411764706" d="M 59.5 86 L 58.5 88 L 59.5 86 Z " /><path fill="rgb(200,242,29)" stroke="rgb(200,242,29)" stroke-width="1" opacity="0.4823529411764706" d="M 102.5 86 L 97.5 92 L 102.5 86 Z " /><path fill="rgb(200,242,29)" stroke="rgb(200,242,29)" stroke-width="1" opacity="0.4823529411764706" d="M 52.5 91 L 51.5 93 L 52.5 91 Z " /><path fill="rgb(200,242,29)" stroke="rgb(200,242,29)" stroke-width="1" opacity="0.4823529411764706" d="M 49.5 93 L 48.5 95 L 49.5 93 Z " /><path fill="rgb(200,242,29)" stroke="rgb(200,242,29)" stroke-width="1" opacity="0.4823529411764706" d="M 46.5 95 L 45.5 97 L 46.5 95 Z " /><path fill="rgb(200,242,29)" stroke="rgb(200,242,29)" stroke-width="1" opacity="0.4823529411764706" d="M 91.5 95 L 90.5 97 L 91.5 95 Z " /><path fill="rgb(200,242,29)" stroke="rgb(200,242,29)" stroke-width="1" opacity="0.4823529411764706" d="M 43.5 97 L 43 98.5 L 43 127.5 L 44 128.5 L 42 129 L 42 99 L 23.5 99 L 23.5 98 L 42.5 98 L 43.5 97 Z " /><path fill="rgb(200,242,29)" stroke="rgb(200,242,29)" stroke-width="1" opacity="0.4823529411764706" d="M 88.5 97 L 87.5 99 L 88.5 97 Z " /><path fill="rgb(200,242,29)" stroke="rgb(200,242,29)" stroke-width="1" opacity="0.4823529411764706" d="M 84.5 100 L 83.5 102 L 84.5 100 Z " /><path fill="rgb(200,242,29)" stroke="rgb(200,242,29)" stroke-width="1" opacity="0.4823529411764706" d="M 81.5 102 L 80.5 104 L 81.5 102 Z " /><path fill="rgb(200,242,29)" stroke="rgb(200,242,29)" stroke-width="1" opacity="0.4823529411764706" d="M 78.5 104 L 77.5 106 L 78.5 104 Z " /><path fill="rgb(200,242,29)" stroke="rgb(200,242,29)" stroke-width="1" opacity="0.4823529411764706" d="M 75.5 106 L 74.5 108 L 75.5 106 Z " /><path fill="rgb(200,242,29)" stroke="rgb(200,242,29)" stroke-width="1" opacity="0.4823529411764706" d="M 72.5 108 L 71.5 110 L 72.5 108 Z " /><path fill="rgb(200,242,29)" stroke="rgb(200,242,29)" stroke-width="1" opacity="0.4823529411764706" d="M 69.5 110 L 68.5 112 L 69.5 110 Z " /><path fill="rgb(200,242,29)" stroke="rgb(200,242,29)" stroke-width="1" opacity="0.4823529411764706" d="M 65.5 113 L 64.5 115 L 65.5 113 Z " /><path fill="rgb(200,242,29)" stroke="rgb(200,242,29)" stroke-width="1" opacity="0.4823529411764706" d="M 62.5 115 L 61.5 117 L 62.5 115 Z " /><path fill="rgb(200,242,29)" stroke="rgb(200,242,29)" stroke-width="1" opacity="0.4823529411764706" d="M 59.5 117 L 58.5 119 L 59.5 117 Z " /><path fill="rgb(200,242,29)" stroke="rgb(200,242,29)" stroke-width="1" opacity="0.4823529411764706" d="M 56.5 119 L 55.5 121 L 56.5 119 Z " /><path fill="rgb(200,242,29)" stroke="rgb(200,242,29)" stroke-width="1" opacity="0.4823529411764706" d="M 53.5 121 L 52.5 123 L 53.5 121 Z " /><path fill="rgb(200,242,29)" stroke="rgb(200,242,29)" stroke-width="1" opacity="0.4823529411764706" d="M 49.5 124 L 48.5 126 L 49.5 124 Z " /><path fill="rgb(200,242,29)" stroke="rgb(200,242,29)" stroke-width="1" opacity="0.4823529411764706" d="M 46.5 126 L 45.5 128 L 46.5 126 Z " /><path fill="rgb(0,0,0)" stroke="rgb(0,0,0)" stroke-width="1" opacity="0" d="M 0 0 L 42 0 L 42 30 L 16 30 L 16 15 L 0 15 L 0 0 Z " /><path fill="rgb(0,0,0)" stroke="rgb(0,0,0)" stroke-width="1" opacity="0" d="M 45.5 0 L 113 0 L 113 130 L 0 130 L 0 31 L 15 31 L 15 59 L 43 59 L 43 32.5 L 44.5 32 L 82 58.5 L 88 67.5 L 85.5 66 Q 82.9 65.2 84 68.5 Q 65.1 84.7 43 97 L 43 78 L 24.5 78 L 23 79.5 L 23 99 L 42 99 L 42 128.5 L 43.5 129 L 92 95.5 L 93.5 91 L 94.5 94 L 103 86.5 Q 111.5 78.5 111 61.5 Q 108.4 45.1 97.5 37 L 47.5 3 L 45.5 0 Z " /><path fill="rgb(0,0,0)" stroke="rgb(0,0,0)" stroke-width="1" opacity="0" d="M 91.5 75 L 93 78.5 L 92 78.5 L 91.5 75 Z " /><path fill="rgb(0,0,0)" stroke="rgb(0,0,0)" stroke-width="1" opacity="0" d="M 93.5 80 L 94 82.5 L 93 82.5 L 93.5 80 Z " /><path fill="rgb(0,0,0)" stroke="rgb(0,0,0)" stroke-width="1" opacity="0" d="M 94.5 85 L 95 89.5 L 94 89.5 L 94.5 85 Z " /><path fill="rgb(201,243,29)" stroke="rgb(201,243,29)" stroke-width="1" opacity="1" d="M 43 1 L 85.5 29 L 100 40.5 Q 106 46.5 109 55.5 L 110 71.5 Q 106.5 86 95.5 93 L 95 82.5 L 92 73.5 L 80.5 56 L 43.5 31 L 43 58 L 15 58 L 15 31 L 43 31 L 43 1 Z " /><path fill="rgb(201,243,29)" stroke="rgb(201,243,29)" stroke-width="1" opacity="1" d="M 0 16 L 15 16 L 15 30 L 0 30 L 0 16 Z " /><path fill="rgb(201,243,29)" stroke="rgb(201,243,29)" stroke-width="1" opacity="1" d="M 85.5 67 L 92 78.5 L 93 92.5 L 89.5 97 L 43 128 L 43 98 L 23 98 L 23 79 L 43 79 L 43 97.5 L 44.5 97 L 84 69.5 L 85.5 67 Z " /></svg>