<svg xmlns="http://www.w3.org/2000/svg" xmlns:xlink="http://www.w3.org/1999/xlink" width="396" zoomAndPan="magnify" viewBox="0 0 297 97.5" height="130" preserveAspectRatio="xMidYMid meet" version="1.0"><defs><g/><clipPath id="de35dffdea"><path d="M 0.757812 0 L 83.582031 0 L 83.582031 96.980469 L 0.757812 96.980469 Z M 0.757812 0 " clip-rule="nonzero"/></clipPath></defs><g clip-path="url(#de35dffdea)"><path fill="#c9f31d" d="M 64.511719 49.296875 C 64.511719 50.109375 64.105469 51.117188 63.507812 51.910156 C 62.90625 52.914062 61.902344 53.921875 60.488281 54.734375 L 32.722656 73.851562 L 18.054688 73.851562 L 18.054688 59.164062 L 32.742188 59.164062 L 32.742188 96.761719 L 37.964844 93.140625 L 69.351562 71.625 L 70.164062 70.019531 C 71.574219 66.402344 70.570312 61.96875 69.351562 58.546875 C 68.148438 55.527344 66.523438 52.507812 64.726562 49.492188 Z M 12.019531 11.488281 L 0.757812 11.488281 L 0.757812 22.960938 L 12.019531 22.960938 Z M 63.101562 44.867188 C 63.101562 44.867188 75.175781 60.75 71.148438 70.40625 C 74.574219 68.199219 77.1875 65.589844 79.199219 62.570312 C 82.21875 58.140625 83.628906 53.320312 83.417969 48.289062 C 83.417969 43.472656 81.8125 38.636719 78.792969 34.203125 C 76.585938 30.992188 73.566406 27.972656 69.738281 25.363281 L 32.742188 0.015625 L 32.742188 22.945312 L 59.09375 40.839844 C 60.894531 42.253906 62.308594 43.453125 63.101562 44.867188 Z M 32.742188 22.945312 L 12.019531 22.945312 L 12.019531 43.667969 L 32.742188 43.667969 Z M 32.742188 22.945312 " fill-opacity="1" fill-rule="nonzero"/></g><g fill="#ffffff" fill-opacity="1"><g transform="translate(93.296115, 61.076561)"><g><path d="M 15.0625 0 L 6.171875 0 L 6.171875 -6.03125 L 14.71875 -6.03125 C 16.945312 -6.03125 18.804688 -6.429688 20.296875 -7.234375 C 21.796875 -8.035156 22.921875 -9.257812 23.671875 -10.90625 C 24.429688 -12.550781 24.8125 -14.644531 24.8125 -17.1875 C 24.8125 -19.695312 24.429688 -21.773438 23.671875 -23.421875 C 22.921875 -25.066406 21.800781 -26.285156 20.3125 -27.078125 C 18.820312 -27.878906 16.972656 -28.28125 14.765625 -28.28125 L 6.015625 -28.28125 L 6.015625 -34.3125 L 15.171875 -34.3125 C 18.628906 -34.3125 21.597656 -33.625 24.078125 -32.25 C 26.554688 -30.882812 28.46875 -28.914062 29.8125 -26.34375 C 31.15625 -23.78125 31.828125 -20.726562 31.828125 -17.1875 C 31.828125 -13.625 31.160156 -10.554688 29.828125 -7.984375 C 28.492188 -5.421875 26.570312 -3.445312 24.0625 -2.0625 C 21.550781 -0.6875 18.550781 0 15.0625 0 Z M 10.015625 -34.3125 L 10.015625 0 L 2.96875 0 L 2.96875 -34.3125 Z M 10.015625 -34.3125 "/></g></g></g><g fill="#ffffff" fill-opacity="1"><g transform="translate(130.42569, 61.076561)"><g><path d="M 2.96875 0 L 2.96875 -34.3125 L 26.328125 -34.3125 L 26.328125 -28.421875 L 10.015625 -28.421875 L 10.015625 -20.21875 L 25.078125 -20.21875 L 25.078125 -14.4375 L 10.015625 -14.4375 L 10.015625 -5.890625 L 26.34375 -5.890625 L 26.34375 0 Z M 2.96875 0 "/></g></g></g><g fill="#ffffff" fill-opacity="1"><g transform="translate(162.374053, 61.076561)"><g><path d="M 12.9375 0 L 0.921875 -34.3125 L 8.703125 -34.3125 L 14.21875 -17.734375 C 14.875 -15.648438 15.539062 -13.359375 16.21875 -10.859375 C 16.90625 -8.367188 17.632812 -5.644531 18.40625 -2.6875 L 16.765625 -2.6875 C 17.515625 -5.664062 18.21875 -8.394531 18.875 -10.875 C 19.539062 -13.363281 20.191406 -15.648438 20.828125 -17.734375 L 26.140625 -34.3125 L 33.859375 -34.3125 L 22.109375 0 Z M 12.9375 0 "/></g></g></g><g fill="#ffffff" fill-opacity="1"><g transform="translate(200.447753, 61.076561)"><g><path d="M 2.96875 0 L 2.96875 -34.3125 L 10.015625 -34.3125 L 10.015625 -5.890625 L 25.015625 -5.890625 L 25.015625 0 Z M 2.96875 0 "/></g></g></g><g fill="#ffffff" fill-opacity="1"><g transform="translate(230.323633, 61.076561)"><g><path d="M 13.640625 0 L 13.640625 -12.90625 L 0.921875 -34.3125 L 9.140625 -34.3125 L 14.953125 -23.703125 C 15.515625 -22.660156 16.035156 -21.625 16.515625 -20.59375 C 16.992188 -19.5625 17.476562 -18.367188 17.96875 -17.015625 L 16.421875 -17.015625 C 16.898438 -18.390625 17.363281 -19.59375 17.8125 -20.625 C 18.269531 -21.664062 18.773438 -22.691406 19.328125 -23.703125 L 24.9375 -34.3125 L 33.125 -34.3125 L 20.609375 -12.90625 L 20.609375 0 Z M 13.640625 0 "/></g></g></g></svg>